<mxfile host="Electron" modified="2023-12-30T21:22:42.391Z" agent="Mozilla/5.0 (Windows NT 10.0; Win64; x64) AppleWebKit/537.36 (KHTML, like Gecko) draw.io/22.1.16 Chrome/120.0.6099.109 Electron/28.1.0 Safari/537.36" etag="j7_hw85V5PnLI0oJdC23" version="22.1.16" type="device">
  <diagram name="ページ1" id="QIqbBFtlbCM1oKvhPO8x">
    <mxGraphModel dx="2429" dy="1434" grid="1" gridSize="10" guides="1" tooltips="1" connect="1" arrows="1" fold="1" page="1" pageScale="1" pageWidth="1600" pageHeight="1200" math="0" shadow="0">
      <root>
        <mxCell id="0" />
        <mxCell id="1" parent="0" />
        <mxCell id="T4lcWnXd6TqMleLlDLS1-2" value="" style="ellipse;shape=cloud;whiteSpace=wrap;html=1;fillColor=#CCE5FF;" parent="1" vertex="1">
          <mxGeometry x="180" y="191.5" width="1154.75" height="788.5" as="geometry" />
        </mxCell>
        <mxCell id="fwr7tWHjvpgkTqN-i9zz-13" value="" style="endArrow=classic;html=1;rounded=0;exitX=0;exitY=0.5;exitDx=0;exitDy=0;strokeWidth=4;entryX=1;entryY=0.5;entryDx=0;entryDy=0;" parent="1" source="fwr7tWHjvpgkTqN-i9zz-11" target="fwr7tWHjvpgkTqN-i9zz-2" edge="1">
          <mxGeometry width="50" height="50" relative="1" as="geometry">
            <mxPoint x="450" y="600" as="sourcePoint" />
            <mxPoint x="260" y="1100" as="targetPoint" />
          </mxGeometry>
        </mxCell>
        <mxCell id="fwr7tWHjvpgkTqN-i9zz-1" value="&lt;font style=&quot;font-size: 30px;&quot;&gt;会計データ&lt;/font&gt;" style="shape=cylinder3;whiteSpace=wrap;html=1;boundedLbl=1;backgroundOutline=1;size=15;" parent="1" vertex="1">
          <mxGeometry x="670" y="370" width="200" height="240" as="geometry" />
        </mxCell>
        <mxCell id="fwr7tWHjvpgkTqN-i9zz-2" value="&lt;font style=&quot;font-size: 30px;&quot;&gt;政治家&lt;/font&gt;" style="whiteSpace=wrap;html=1;aspect=fixed;" parent="1" vertex="1">
          <mxGeometry x="70" y="930" width="180" height="180" as="geometry" />
        </mxCell>
        <mxCell id="fwr7tWHjvpgkTqN-i9zz-3" value="&lt;font style=&quot;font-size: 30px;&quot;&gt;金融機関&lt;/font&gt;" style="whiteSpace=wrap;html=1;aspect=fixed;" parent="1" vertex="1">
          <mxGeometry x="30" y="394" width="180" height="180" as="geometry" />
        </mxCell>
        <mxCell id="fwr7tWHjvpgkTqN-i9zz-4" value="&lt;font style=&quot;font-size: 30px;&quot;&gt;総務省&lt;/font&gt;" style="whiteSpace=wrap;html=1;aspect=fixed;" parent="1" vertex="1">
          <mxGeometry x="1040" y="40" width="180" height="180" as="geometry" />
        </mxCell>
        <mxCell id="fwr7tWHjvpgkTqN-i9zz-5" value="&lt;font style=&quot;font-size: 30px;&quot;&gt;県選管&lt;/font&gt;" style="whiteSpace=wrap;html=1;aspect=fixed;" parent="1" vertex="1">
          <mxGeometry x="1390" y="40" width="180" height="180" as="geometry" />
        </mxCell>
        <mxCell id="fwr7tWHjvpgkTqN-i9zz-6" value="&lt;span style=&quot;font-size: 30px;&quot;&gt;商店他&lt;br&gt;サービス&lt;br&gt;&lt;/span&gt;" style="whiteSpace=wrap;html=1;aspect=fixed;" parent="1" vertex="1">
          <mxGeometry x="240" y="115.5" width="180" height="180" as="geometry" />
        </mxCell>
        <mxCell id="fwr7tWHjvpgkTqN-i9zz-7" value="" style="endArrow=classic;html=1;rounded=0;exitX=0.5;exitY=1;exitDx=0;exitDy=0;strokeWidth=4;" parent="1" source="fwr7tWHjvpgkTqN-i9zz-3" edge="1">
          <mxGeometry width="50" height="50" relative="1" as="geometry">
            <mxPoint x="640" y="520" as="sourcePoint" />
            <mxPoint x="160" y="920" as="targetPoint" />
          </mxGeometry>
        </mxCell>
        <mxCell id="fwr7tWHjvpgkTqN-i9zz-8" value="" style="endArrow=classic;html=1;rounded=0;entryX=0.5;entryY=0;entryDx=0;entryDy=0;exitX=0.5;exitY=1;exitDx=0;exitDy=0;strokeWidth=4;" parent="1" source="fwr7tWHjvpgkTqN-i9zz-6" target="fwr7tWHjvpgkTqN-i9zz-2" edge="1">
          <mxGeometry width="50" height="50" relative="1" as="geometry">
            <mxPoint x="520" y="780" as="sourcePoint" />
            <mxPoint x="310" y="884" as="targetPoint" />
          </mxGeometry>
        </mxCell>
        <mxCell id="fwr7tWHjvpgkTqN-i9zz-10" value="&lt;font style=&quot;font-size: 30px;&quot;&gt;領収書・レシート&lt;br&gt;スキャン画像&lt;br&gt;&lt;/font&gt;" style="text;html=1;strokeColor=none;fillColor=default;align=center;verticalAlign=middle;whiteSpace=wrap;rounded=0;" parent="1" vertex="1">
          <mxGeometry x="227" y="321" width="300" height="70" as="geometry" />
        </mxCell>
        <mxCell id="fwr7tWHjvpgkTqN-i9zz-11" value="&lt;font style=&quot;font-size: 30px;&quot;&gt;金融機関&lt;/font&gt;" style="whiteSpace=wrap;html=1;aspect=fixed;" parent="1" vertex="1">
          <mxGeometry x="790" y="965" width="180" height="180" as="geometry" />
        </mxCell>
        <mxCell id="fwr7tWHjvpgkTqN-i9zz-12" value="&lt;font style=&quot;font-size: 30px;&quot;&gt;寄付者&lt;/font&gt;" style="whiteSpace=wrap;html=1;aspect=fixed;" parent="1" vertex="1">
          <mxGeometry x="1140" y="863" width="180" height="180" as="geometry" />
        </mxCell>
        <mxCell id="fwr7tWHjvpgkTqN-i9zz-14" value="" style="endArrow=classic;html=1;rounded=0;exitX=0.5;exitY=1;exitDx=0;exitDy=0;strokeWidth=4;entryX=1;entryY=0.5;entryDx=0;entryDy=0;" parent="1" source="fwr7tWHjvpgkTqN-i9zz-12" target="fwr7tWHjvpgkTqN-i9zz-11" edge="1">
          <mxGeometry width="50" height="50" relative="1" as="geometry">
            <mxPoint x="740" y="750" as="sourcePoint" />
            <mxPoint x="320" y="894" as="targetPoint" />
          </mxGeometry>
        </mxCell>
        <mxCell id="fwr7tWHjvpgkTqN-i9zz-15" value="" style="endArrow=classic;html=1;rounded=0;strokeWidth=4;exitX=0;exitY=0.5;exitDx=0;exitDy=0;" parent="1" source="fwr7tWHjvpgkTqN-i9zz-12" target="fwr7tWHjvpgkTqN-i9zz-2" edge="1">
          <mxGeometry width="50" height="50" relative="1" as="geometry">
            <mxPoint x="210" y="260" as="sourcePoint" />
            <mxPoint x="160" y="930" as="targetPoint" />
          </mxGeometry>
        </mxCell>
        <mxCell id="fwr7tWHjvpgkTqN-i9zz-16" value="&lt;font style=&quot;font-size: 30px;&quot;&gt;取引データcsv&lt;br&gt;&lt;/font&gt;" style="text;html=1;strokeColor=none;fillColor=default;align=center;verticalAlign=middle;whiteSpace=wrap;rounded=0;" parent="1" vertex="1">
          <mxGeometry x="7" y="623" width="300" height="30" as="geometry" />
        </mxCell>
        <mxCell id="fwr7tWHjvpgkTqN-i9zz-18" value="&lt;font style=&quot;font-size: 30px;&quot;&gt;領収書&lt;br&gt;スキャン画像&lt;br&gt;&lt;/font&gt;" style="text;html=1;strokeColor=none;fillColor=default;align=center;verticalAlign=middle;whiteSpace=wrap;rounded=0;" parent="1" vertex="1">
          <mxGeometry x="722" y="866" width="204" height="79" as="geometry" />
        </mxCell>
        <mxCell id="fwr7tWHjvpgkTqN-i9zz-19" value="" style="endArrow=classic;html=1;rounded=0;entryX=0;entryY=0.5;entryDx=0;entryDy=0;exitX=0.5;exitY=0;exitDx=0;exitDy=0;exitPerimeter=0;strokeWidth=3;" parent="1" source="fwr7tWHjvpgkTqN-i9zz-1" target="fwr7tWHjvpgkTqN-i9zz-4" edge="1">
          <mxGeometry width="50" height="50" relative="1" as="geometry">
            <mxPoint x="640" y="500" as="sourcePoint" />
            <mxPoint x="690" y="450" as="targetPoint" />
          </mxGeometry>
        </mxCell>
        <mxCell id="fwr7tWHjvpgkTqN-i9zz-20" value="&lt;font style=&quot;font-size: 30px;&quot;&gt;報告書&lt;br&gt;XML&lt;br&gt;&lt;/font&gt;" style="text;html=1;strokeColor=none;fillColor=default;align=center;verticalAlign=middle;whiteSpace=wrap;rounded=0;" parent="1" vertex="1">
          <mxGeometry x="812" y="176" width="204" height="79" as="geometry" />
        </mxCell>
        <mxCell id="fwr7tWHjvpgkTqN-i9zz-21" value="" style="endArrow=classic;html=1;rounded=0;entryX=0;entryY=0.5;entryDx=0;entryDy=0;exitX=1;exitY=0.5;exitDx=0;exitDy=0;strokeWidth=3;" parent="1" source="fwr7tWHjvpgkTqN-i9zz-4" target="fwr7tWHjvpgkTqN-i9zz-5" edge="1">
          <mxGeometry width="50" height="50" relative="1" as="geometry">
            <mxPoint x="659" y="420" as="sourcePoint" />
            <mxPoint x="1050" y="140" as="targetPoint" />
          </mxGeometry>
        </mxCell>
        <mxCell id="fwr7tWHjvpgkTqN-i9zz-22" value="&lt;font style=&quot;font-size: 30px;&quot;&gt;共有&lt;br&gt;&lt;/font&gt;" style="text;html=1;strokeColor=none;fillColor=default;align=center;verticalAlign=middle;whiteSpace=wrap;rounded=0;" parent="1" vertex="1">
          <mxGeometry x="1252" y="76" width="118" height="79" as="geometry" />
        </mxCell>
        <mxCell id="fwr7tWHjvpgkTqN-i9zz-23" value="" style="endArrow=classic;html=1;rounded=0;entryX=0;entryY=0.5;entryDx=0;entryDy=0;exitX=1;exitY=0;exitDx=0;exitDy=0;strokeWidth=3;entryPerimeter=0;" parent="1" source="fwr7tWHjvpgkTqN-i9zz-2" target="fwr7tWHjvpgkTqN-i9zz-1" edge="1">
          <mxGeometry width="50" height="50" relative="1" as="geometry">
            <mxPoint x="659" y="420" as="sourcePoint" />
            <mxPoint x="1050" y="140" as="targetPoint" />
          </mxGeometry>
        </mxCell>
        <mxCell id="fwr7tWHjvpgkTqN-i9zz-24" value="&lt;font style=&quot;font-size: 30px;&quot;&gt;会計作成UI&lt;br&gt;&lt;/font&gt;" style="swimlane;whiteSpace=wrap;html=1;swimlaneFillColor=#A9C4EB;" parent="1" vertex="1">
          <mxGeometry x="390" y="600" width="252" height="168" as="geometry" />
        </mxCell>
        <mxCell id="fwr7tWHjvpgkTqN-i9zz-26" value="" style="endArrow=classic;html=1;rounded=0;exitX=0;exitY=0.5;exitDx=0;exitDy=0;strokeWidth=4;entryX=0.5;entryY=0;entryDx=0;entryDy=0;" parent="1" source="fwr7tWHjvpgkTqN-i9zz-6" target="fwr7tWHjvpgkTqN-i9zz-3" edge="1">
          <mxGeometry width="50" height="50" relative="1" as="geometry">
            <mxPoint x="150" y="273" as="sourcePoint" />
            <mxPoint x="80" y="340" as="targetPoint" />
          </mxGeometry>
        </mxCell>
        <mxCell id="fwr7tWHjvpgkTqN-i9zz-9" value="&lt;font style=&quot;font-size: 30px;&quot;&gt;取引データcsv&lt;br&gt;&lt;/font&gt;" style="text;html=1;strokeColor=none;fillColor=default;align=center;verticalAlign=middle;whiteSpace=wrap;rounded=0;" parent="1" vertex="1">
          <mxGeometry x="297" y="1063" width="300" height="30" as="geometry" />
        </mxCell>
        <mxCell id="fwr7tWHjvpgkTqN-i9zz-27" value="&lt;font style=&quot;font-size: 30px;&quot;&gt;登録&lt;br&gt;&lt;/font&gt;" style="text;html=1;strokeColor=none;fillColor=default;align=center;verticalAlign=middle;whiteSpace=wrap;rounded=0;" parent="1" vertex="1">
          <mxGeometry x="255" y="803" width="183" height="30" as="geometry" />
        </mxCell>
        <mxCell id="fwr7tWHjvpgkTqN-i9zz-28" value="" style="endArrow=classic;html=1;rounded=0;strokeWidth=3;" parent="1" source="fwr7tWHjvpgkTqN-i9zz-1" target="fwr7tWHjvpgkTqN-i9zz-29" edge="1">
          <mxGeometry width="50" height="50" relative="1" as="geometry">
            <mxPoint x="260" y="940" as="sourcePoint" />
            <mxPoint x="1320" y="490" as="targetPoint" />
          </mxGeometry>
        </mxCell>
        <mxCell id="fwr7tWHjvpgkTqN-i9zz-25" value="&lt;font style=&quot;font-size: 30px;&quot;&gt;会計分析UI&lt;br&gt;&lt;/font&gt;" style="swimlane;whiteSpace=wrap;html=1;swimlaneFillColor=#A9C4EB;" parent="1" vertex="1">
          <mxGeometry x="938" y="400" width="252" height="168" as="geometry" />
        </mxCell>
        <mxCell id="fwr7tWHjvpgkTqN-i9zz-29" value="&lt;font style=&quot;font-size: 30px;&quot;&gt;オンブズマン&lt;/font&gt;" style="whiteSpace=wrap;html=1;aspect=fixed;" parent="1" vertex="1">
          <mxGeometry x="1340" y="363" width="180" height="180" as="geometry" />
        </mxCell>
        <mxCell id="fwr7tWHjvpgkTqN-i9zz-30" value="" style="shape=flexArrow;endArrow=classic;html=1;rounded=0;entryX=1;entryY=0.25;entryDx=0;entryDy=0;exitX=0.25;exitY=1;exitDx=0;exitDy=0;fillColor=#FF0000;strokeColor=#FF0000;" parent="1" source="fwr7tWHjvpgkTqN-i9zz-29" target="fwr7tWHjvpgkTqN-i9zz-2" edge="1">
          <mxGeometry width="50" height="50" relative="1" as="geometry">
            <mxPoint x="640" y="680" as="sourcePoint" />
            <mxPoint x="690" y="630" as="targetPoint" />
          </mxGeometry>
        </mxCell>
        <mxCell id="fwr7tWHjvpgkTqN-i9zz-31" value="&lt;font style=&quot;font-size: 30px;&quot;&gt;アドバイス&lt;br&gt;&lt;/font&gt;" style="text;html=1;strokeColor=none;fillColor=default;align=center;verticalAlign=middle;whiteSpace=wrap;rounded=0;" parent="1" vertex="1">
          <mxGeometry x="577" y="790" width="300" height="38" as="geometry" />
        </mxCell>
        <mxCell id="fwr7tWHjvpgkTqN-i9zz-32" value="&lt;font style=&quot;font-size: 30px;&quot;&gt;マスコミ&lt;/font&gt;" style="whiteSpace=wrap;html=1;aspect=fixed;" parent="1" vertex="1">
          <mxGeometry x="1380" y="963" width="180" height="180" as="geometry" />
        </mxCell>
        <mxCell id="fwr7tWHjvpgkTqN-i9zz-34" value="" style="endArrow=classic;html=1;rounded=0;strokeWidth=3;entryX=0.5;entryY=0;entryDx=0;entryDy=0;exitX=0.5;exitY=1;exitDx=0;exitDy=0;" parent="1" source="fwr7tWHjvpgkTqN-i9zz-29" target="fwr7tWHjvpgkTqN-i9zz-32" edge="1">
          <mxGeometry width="50" height="50" relative="1" as="geometry">
            <mxPoint x="880" y="720" as="sourcePoint" />
            <mxPoint x="1350" y="723" as="targetPoint" />
          </mxGeometry>
        </mxCell>
        <mxCell id="fwr7tWHjvpgkTqN-i9zz-35" value="&lt;font style=&quot;font-size: 30px;&quot;&gt;一定期限内に&lt;br&gt;是正されないと通報&lt;br&gt;&lt;/font&gt;" style="text;html=1;strokeColor=none;fillColor=default;align=center;verticalAlign=middle;whiteSpace=wrap;rounded=0;" parent="1" vertex="1">
          <mxGeometry x="1277" y="640" width="300" height="98" as="geometry" />
        </mxCell>
        <mxCell id="fwr7tWHjvpgkTqN-i9zz-36" value="&lt;font color=&quot;#000000&quot; style=&quot;font-size: 30px;&quot;&gt;本ソフト担当領域&lt;/font&gt;" style="text;html=1;strokeColor=none;fillColor=none;align=center;verticalAlign=middle;whiteSpace=wrap;rounded=0;fontColor=#FFF2CC;fontStyle=1" parent="1" vertex="1">
          <mxGeometry x="377" y="680" width="270" height="30" as="geometry" />
        </mxCell>
        <mxCell id="fwr7tWHjvpgkTqN-i9zz-37" value="&lt;font color=&quot;#000000&quot; style=&quot;font-size: 30px;&quot;&gt;本ソフト担当領域&lt;/font&gt;" style="text;html=1;strokeColor=none;fillColor=none;align=center;verticalAlign=middle;whiteSpace=wrap;rounded=0;fontColor=#FFF2CC;fontStyle=1" parent="1" vertex="1">
          <mxGeometry x="937" y="470" width="270" height="30" as="geometry" />
        </mxCell>
        <mxCell id="fwr7tWHjvpgkTqN-i9zz-38" value="&lt;font color=&quot;#000000&quot; style=&quot;font-size: 30px;&quot;&gt;本ソフト担当領域&lt;/font&gt;" style="text;html=1;strokeColor=none;fillColor=none;align=center;verticalAlign=middle;whiteSpace=wrap;rounded=0;fontColor=#FFF2CC;fontStyle=1" parent="1" vertex="1">
          <mxGeometry x="367" y="470" width="270" height="30" as="geometry" />
        </mxCell>
        <mxCell id="fwr7tWHjvpgkTqN-i9zz-39" value="" style="endArrow=classic;html=1;rounded=0;strokeWidth=3;entryX=0.5;entryY=1;entryDx=0;entryDy=0;exitX=0.419;exitY=-0.001;exitDx=0;exitDy=0;exitPerimeter=0;" parent="1" source="fwr7tWHjvpgkTqN-i9zz-12" target="fwr7tWHjvpgkTqN-i9zz-25" edge="1">
          <mxGeometry width="50" height="50" relative="1" as="geometry">
            <mxPoint x="1440" y="593" as="sourcePoint" />
            <mxPoint x="1480" y="973" as="targetPoint" />
          </mxGeometry>
        </mxCell>
        <mxCell id="fwr7tWHjvpgkTqN-i9zz-40" value="&lt;font style=&quot;font-size: 30px;&quot;&gt;決算など一般情報&lt;br&gt;&lt;/font&gt;" style="text;html=1;strokeColor=none;fillColor=default;align=center;verticalAlign=middle;whiteSpace=wrap;rounded=0;" parent="1" vertex="1">
          <mxGeometry x="1057" y="780" width="300" height="48" as="geometry" />
        </mxCell>
        <mxCell id="fwr7tWHjvpgkTqN-i9zz-41" value="" style="endArrow=classic;html=1;rounded=0;entryX=0;entryY=0.5;entryDx=0;entryDy=0;exitX=0.394;exitY=1.004;exitDx=0;exitDy=0;strokeWidth=3;exitPerimeter=0;" parent="1" source="fwr7tWHjvpgkTqN-i9zz-4" target="fwr7tWHjvpgkTqN-i9zz-29" edge="1">
          <mxGeometry width="50" height="50" relative="1" as="geometry">
            <mxPoint x="1220" y="370" as="sourcePoint" />
            <mxPoint x="1150" y="140" as="targetPoint" />
          </mxGeometry>
        </mxCell>
        <mxCell id="fwr7tWHjvpgkTqN-i9zz-45" value="&lt;font style=&quot;font-size: 30px;&quot;&gt;従来参照ルート&lt;/font&gt;" style="text;html=1;strokeColor=none;fillColor=default;align=center;verticalAlign=middle;whiteSpace=wrap;rounded=0;" parent="1" vertex="1">
          <mxGeometry x="1097" y="250" width="300" height="80" as="geometry" />
        </mxCell>
        <mxCell id="T4lcWnXd6TqMleLlDLS1-3" value="名称未設定レイヤ" parent="0" />
        <mxCell id="T4lcWnXd6TqMleLlDLS1-87" value="" style="rounded=0;whiteSpace=wrap;html=1;strokeWidth=3;" parent="T4lcWnXd6TqMleLlDLS1-3" vertex="1">
          <mxGeometry x="10" y="1" width="1598" height="1198" as="geometry" />
        </mxCell>
        <mxCell id="T4lcWnXd6TqMleLlDLS1-45" value="名称未設定レイヤ" parent="0" />
        <mxCell id="T4lcWnXd6TqMleLlDLS1-46" value="" style="ellipse;shape=cloud;whiteSpace=wrap;html=1;fillColor=#CCE5FF;" parent="T4lcWnXd6TqMleLlDLS1-45" vertex="1">
          <mxGeometry x="180" y="191.5" width="1154.75" height="788.5" as="geometry" />
        </mxCell>
        <mxCell id="T4lcWnXd6TqMleLlDLS1-47" value="" style="endArrow=classic;html=1;rounded=0;exitX=0;exitY=0.5;exitDx=0;exitDy=0;strokeWidth=4;entryX=1;entryY=0.5;entryDx=0;entryDy=0;" parent="T4lcWnXd6TqMleLlDLS1-45" source="T4lcWnXd6TqMleLlDLS1-57" target="T4lcWnXd6TqMleLlDLS1-49" edge="1">
          <mxGeometry width="50" height="50" relative="1" as="geometry">
            <mxPoint x="450" y="600" as="sourcePoint" />
            <mxPoint x="260" y="1100" as="targetPoint" />
          </mxGeometry>
        </mxCell>
        <mxCell id="T4lcWnXd6TqMleLlDLS1-48" value="&lt;font style=&quot;font-size: 30px;&quot;&gt;会計&lt;br&gt;データ&lt;/font&gt;" style="shape=cylinder3;whiteSpace=wrap;html=1;boundedLbl=1;backgroundOutline=1;size=15;fillColor=#FF6666;strokeColor=#000000;strokeWidth=1;" parent="T4lcWnXd6TqMleLlDLS1-45" vertex="1">
          <mxGeometry x="744.84" y="520" width="158.33" height="190" as="geometry" />
        </mxCell>
        <mxCell id="T4lcWnXd6TqMleLlDLS1-49" value="&lt;font style=&quot;font-size: 30px;&quot;&gt;政治家&lt;/font&gt;" style="whiteSpace=wrap;html=1;aspect=fixed;" parent="T4lcWnXd6TqMleLlDLS1-45" vertex="1">
          <mxGeometry x="70" y="930" width="180" height="180" as="geometry" />
        </mxCell>
        <mxCell id="T4lcWnXd6TqMleLlDLS1-50" value="&lt;font style=&quot;font-size: 30px;&quot;&gt;金融機関&lt;/font&gt;" style="whiteSpace=wrap;html=1;aspect=fixed;" parent="T4lcWnXd6TqMleLlDLS1-45" vertex="1">
          <mxGeometry x="30" y="394" width="180" height="180" as="geometry" />
        </mxCell>
        <mxCell id="T4lcWnXd6TqMleLlDLS1-51" value="&lt;font style=&quot;font-size: 30px;&quot;&gt;総務省&lt;/font&gt;" style="whiteSpace=wrap;html=1;aspect=fixed;" parent="T4lcWnXd6TqMleLlDLS1-45" vertex="1">
          <mxGeometry x="1040" y="40" width="180" height="180" as="geometry" />
        </mxCell>
        <mxCell id="T4lcWnXd6TqMleLlDLS1-52" value="&lt;font style=&quot;font-size: 30px;&quot;&gt;県選管&lt;/font&gt;" style="whiteSpace=wrap;html=1;aspect=fixed;" parent="T4lcWnXd6TqMleLlDLS1-45" vertex="1">
          <mxGeometry x="1390" y="40" width="180" height="180" as="geometry" />
        </mxCell>
        <mxCell id="T4lcWnXd6TqMleLlDLS1-53" value="&lt;span style=&quot;font-size: 30px;&quot;&gt;商店他&lt;br&gt;サービス&lt;br&gt;&lt;/span&gt;" style="whiteSpace=wrap;html=1;aspect=fixed;" parent="T4lcWnXd6TqMleLlDLS1-45" vertex="1">
          <mxGeometry x="240" y="115.5" width="180" height="180" as="geometry" />
        </mxCell>
        <mxCell id="T4lcWnXd6TqMleLlDLS1-54" value="" style="endArrow=classic;html=1;rounded=0;exitX=0.5;exitY=1;exitDx=0;exitDy=0;strokeWidth=4;" parent="T4lcWnXd6TqMleLlDLS1-45" source="T4lcWnXd6TqMleLlDLS1-50" edge="1">
          <mxGeometry width="50" height="50" relative="1" as="geometry">
            <mxPoint x="640" y="520" as="sourcePoint" />
            <mxPoint x="160" y="920" as="targetPoint" />
          </mxGeometry>
        </mxCell>
        <mxCell id="T4lcWnXd6TqMleLlDLS1-55" value="" style="endArrow=classic;html=1;rounded=0;entryX=0.5;entryY=0;entryDx=0;entryDy=0;exitX=0.5;exitY=1;exitDx=0;exitDy=0;strokeWidth=4;" parent="T4lcWnXd6TqMleLlDLS1-45" source="T4lcWnXd6TqMleLlDLS1-53" target="T4lcWnXd6TqMleLlDLS1-49" edge="1">
          <mxGeometry width="50" height="50" relative="1" as="geometry">
            <mxPoint x="520" y="780" as="sourcePoint" />
            <mxPoint x="310" y="884" as="targetPoint" />
          </mxGeometry>
        </mxCell>
        <mxCell id="T4lcWnXd6TqMleLlDLS1-56" value="&lt;font style=&quot;font-size: 30px;&quot;&gt;領収書・レシート&lt;br&gt;スキャン画像&lt;br&gt;&lt;/font&gt;" style="text;html=1;strokeColor=none;fillColor=default;align=center;verticalAlign=middle;whiteSpace=wrap;rounded=0;" parent="T4lcWnXd6TqMleLlDLS1-45" vertex="1">
          <mxGeometry x="227" y="321" width="300" height="70" as="geometry" />
        </mxCell>
        <mxCell id="T4lcWnXd6TqMleLlDLS1-57" value="&lt;font style=&quot;font-size: 30px;&quot;&gt;金融機関&lt;/font&gt;" style="whiteSpace=wrap;html=1;aspect=fixed;" parent="T4lcWnXd6TqMleLlDLS1-45" vertex="1">
          <mxGeometry x="790" y="965" width="180" height="180" as="geometry" />
        </mxCell>
        <mxCell id="T4lcWnXd6TqMleLlDLS1-58" value="&lt;font style=&quot;font-size: 30px;&quot;&gt;寄付者&lt;/font&gt;" style="whiteSpace=wrap;html=1;aspect=fixed;" parent="T4lcWnXd6TqMleLlDLS1-45" vertex="1">
          <mxGeometry x="1140" y="863" width="180" height="180" as="geometry" />
        </mxCell>
        <mxCell id="T4lcWnXd6TqMleLlDLS1-59" value="" style="endArrow=classic;html=1;rounded=0;exitX=0.5;exitY=1;exitDx=0;exitDy=0;strokeWidth=4;entryX=1;entryY=0.5;entryDx=0;entryDy=0;" parent="T4lcWnXd6TqMleLlDLS1-45" source="T4lcWnXd6TqMleLlDLS1-58" target="T4lcWnXd6TqMleLlDLS1-57" edge="1">
          <mxGeometry width="50" height="50" relative="1" as="geometry">
            <mxPoint x="740" y="750" as="sourcePoint" />
            <mxPoint x="320" y="894" as="targetPoint" />
          </mxGeometry>
        </mxCell>
        <mxCell id="T4lcWnXd6TqMleLlDLS1-60" value="" style="endArrow=classic;html=1;rounded=0;strokeWidth=4;exitX=0;exitY=0.5;exitDx=0;exitDy=0;" parent="T4lcWnXd6TqMleLlDLS1-45" source="T4lcWnXd6TqMleLlDLS1-58" target="T4lcWnXd6TqMleLlDLS1-49" edge="1">
          <mxGeometry width="50" height="50" relative="1" as="geometry">
            <mxPoint x="210" y="260" as="sourcePoint" />
            <mxPoint x="160" y="930" as="targetPoint" />
          </mxGeometry>
        </mxCell>
        <mxCell id="T4lcWnXd6TqMleLlDLS1-61" value="&lt;font style=&quot;font-size: 30px;&quot;&gt;取引データcsv&lt;br&gt;&lt;/font&gt;" style="text;html=1;strokeColor=none;fillColor=default;align=center;verticalAlign=middle;whiteSpace=wrap;rounded=0;" parent="T4lcWnXd6TqMleLlDLS1-45" vertex="1">
          <mxGeometry x="7" y="623" width="300" height="30" as="geometry" />
        </mxCell>
        <mxCell id="T4lcWnXd6TqMleLlDLS1-62" value="&lt;font style=&quot;font-size: 30px;&quot;&gt;領収書&lt;br&gt;スキャン画像&lt;br&gt;&lt;/font&gt;" style="text;html=1;strokeColor=none;fillColor=default;align=center;verticalAlign=middle;whiteSpace=wrap;rounded=0;" parent="T4lcWnXd6TqMleLlDLS1-45" vertex="1">
          <mxGeometry x="722" y="866" width="204" height="79" as="geometry" />
        </mxCell>
        <mxCell id="T4lcWnXd6TqMleLlDLS1-63" value="" style="endArrow=classic;html=1;rounded=0;entryX=0;entryY=0.5;entryDx=0;entryDy=0;exitX=0.5;exitY=0;exitDx=0;exitDy=0;exitPerimeter=0;strokeWidth=3;" parent="T4lcWnXd6TqMleLlDLS1-45" source="T4lcWnXd6TqMleLlDLS1-48" target="T4lcWnXd6TqMleLlDLS1-51" edge="1">
          <mxGeometry width="50" height="50" relative="1" as="geometry">
            <mxPoint x="640" y="500" as="sourcePoint" />
            <mxPoint x="690" y="450" as="targetPoint" />
          </mxGeometry>
        </mxCell>
        <mxCell id="T4lcWnXd6TqMleLlDLS1-64" value="&lt;font style=&quot;font-size: 30px;&quot;&gt;報告書&lt;br&gt;XML&lt;br&gt;&lt;/font&gt;" style="text;html=1;strokeColor=none;fillColor=default;align=center;verticalAlign=middle;whiteSpace=wrap;rounded=0;" parent="T4lcWnXd6TqMleLlDLS1-45" vertex="1">
          <mxGeometry x="812" y="176" width="204" height="79" as="geometry" />
        </mxCell>
        <mxCell id="T4lcWnXd6TqMleLlDLS1-65" value="" style="endArrow=classic;html=1;rounded=0;entryX=0;entryY=0.5;entryDx=0;entryDy=0;exitX=1;exitY=0.5;exitDx=0;exitDy=0;strokeWidth=3;" parent="T4lcWnXd6TqMleLlDLS1-45" source="T4lcWnXd6TqMleLlDLS1-51" target="T4lcWnXd6TqMleLlDLS1-52" edge="1">
          <mxGeometry width="50" height="50" relative="1" as="geometry">
            <mxPoint x="659" y="420" as="sourcePoint" />
            <mxPoint x="1050" y="140" as="targetPoint" />
          </mxGeometry>
        </mxCell>
        <mxCell id="T4lcWnXd6TqMleLlDLS1-66" value="&lt;font style=&quot;font-size: 30px;&quot;&gt;共有&lt;br&gt;&lt;/font&gt;" style="text;html=1;strokeColor=none;fillColor=default;align=center;verticalAlign=middle;whiteSpace=wrap;rounded=0;" parent="T4lcWnXd6TqMleLlDLS1-45" vertex="1">
          <mxGeometry x="1252" y="76" width="118" height="79" as="geometry" />
        </mxCell>
        <mxCell id="T4lcWnXd6TqMleLlDLS1-67" value="" style="endArrow=classic;html=1;rounded=0;entryX=0;entryY=0;entryDx=0;entryDy=135;exitX=1;exitY=0;exitDx=0;exitDy=0;strokeWidth=3;entryPerimeter=0;" parent="T4lcWnXd6TqMleLlDLS1-45" source="T4lcWnXd6TqMleLlDLS1-49" target="Xmfd67187f5n766boxqS-2" edge="1">
          <mxGeometry width="50" height="50" relative="1" as="geometry">
            <mxPoint x="659" y="420" as="sourcePoint" />
            <mxPoint x="1050" y="140" as="targetPoint" />
          </mxGeometry>
        </mxCell>
        <mxCell id="T4lcWnXd6TqMleLlDLS1-68" value="&lt;font style=&quot;font-size: 30px;&quot;&gt;会計作成UI&lt;br&gt;&lt;/font&gt;" style="swimlane;whiteSpace=wrap;html=1;swimlaneFillColor=#A9C4EB;" parent="T4lcWnXd6TqMleLlDLS1-45" vertex="1">
          <mxGeometry x="390" y="600" width="252" height="168" as="geometry" />
        </mxCell>
        <mxCell id="T4lcWnXd6TqMleLlDLS1-69" value="" style="endArrow=classic;html=1;rounded=0;exitX=0;exitY=0.5;exitDx=0;exitDy=0;strokeWidth=4;entryX=0.5;entryY=0;entryDx=0;entryDy=0;" parent="T4lcWnXd6TqMleLlDLS1-45" source="T4lcWnXd6TqMleLlDLS1-53" target="T4lcWnXd6TqMleLlDLS1-50" edge="1">
          <mxGeometry width="50" height="50" relative="1" as="geometry">
            <mxPoint x="150" y="273" as="sourcePoint" />
            <mxPoint x="80" y="340" as="targetPoint" />
          </mxGeometry>
        </mxCell>
        <mxCell id="T4lcWnXd6TqMleLlDLS1-70" value="&lt;font style=&quot;font-size: 30px;&quot;&gt;取引データcsv&lt;br&gt;&lt;/font&gt;" style="text;html=1;strokeColor=none;fillColor=default;align=center;verticalAlign=middle;whiteSpace=wrap;rounded=0;" parent="T4lcWnXd6TqMleLlDLS1-45" vertex="1">
          <mxGeometry x="297" y="1063" width="300" height="30" as="geometry" />
        </mxCell>
        <mxCell id="T4lcWnXd6TqMleLlDLS1-71" value="&lt;font style=&quot;font-size: 30px;&quot;&gt;登録&lt;br&gt;&lt;/font&gt;" style="text;html=1;strokeColor=none;fillColor=default;align=center;verticalAlign=middle;whiteSpace=wrap;rounded=0;" parent="T4lcWnXd6TqMleLlDLS1-45" vertex="1">
          <mxGeometry x="255" y="803" width="183" height="30" as="geometry" />
        </mxCell>
        <mxCell id="T4lcWnXd6TqMleLlDLS1-72" value="" style="endArrow=classic;html=1;rounded=0;strokeWidth=3;" parent="T4lcWnXd6TqMleLlDLS1-45" source="T4lcWnXd6TqMleLlDLS1-48" target="T4lcWnXd6TqMleLlDLS1-74" edge="1">
          <mxGeometry width="50" height="50" relative="1" as="geometry">
            <mxPoint x="260" y="940" as="sourcePoint" />
            <mxPoint x="1320" y="490" as="targetPoint" />
          </mxGeometry>
        </mxCell>
        <mxCell id="T4lcWnXd6TqMleLlDLS1-73" value="&lt;font style=&quot;font-size: 30px;&quot;&gt;会計分析UI&lt;br&gt;&lt;/font&gt;" style="swimlane;whiteSpace=wrap;html=1;swimlaneFillColor=#FF6666;" parent="T4lcWnXd6TqMleLlDLS1-45" vertex="1">
          <mxGeometry x="948" y="410" width="252" height="168" as="geometry" />
        </mxCell>
        <mxCell id="T4lcWnXd6TqMleLlDLS1-74" value="&lt;font style=&quot;font-size: 30px;&quot;&gt;オンブズマン&lt;/font&gt;" style="whiteSpace=wrap;html=1;aspect=fixed;" parent="T4lcWnXd6TqMleLlDLS1-45" vertex="1">
          <mxGeometry x="1340" y="363" width="180" height="180" as="geometry" />
        </mxCell>
        <mxCell id="T4lcWnXd6TqMleLlDLS1-75" value="" style="shape=flexArrow;endArrow=classic;html=1;rounded=0;entryX=1;entryY=0.25;entryDx=0;entryDy=0;exitX=0.25;exitY=1;exitDx=0;exitDy=0;fillColor=#FF0000;strokeColor=#FF0000;" parent="T4lcWnXd6TqMleLlDLS1-45" source="T4lcWnXd6TqMleLlDLS1-74" target="T4lcWnXd6TqMleLlDLS1-49" edge="1">
          <mxGeometry width="50" height="50" relative="1" as="geometry">
            <mxPoint x="640" y="680" as="sourcePoint" />
            <mxPoint x="690" y="630" as="targetPoint" />
          </mxGeometry>
        </mxCell>
        <mxCell id="T4lcWnXd6TqMleLlDLS1-76" value="&lt;font style=&quot;font-size: 30px;&quot;&gt;アドバイス&lt;br&gt;&lt;/font&gt;" style="text;html=1;strokeColor=none;fillColor=default;align=center;verticalAlign=middle;whiteSpace=wrap;rounded=0;" parent="T4lcWnXd6TqMleLlDLS1-45" vertex="1">
          <mxGeometry x="577" y="790" width="300" height="38" as="geometry" />
        </mxCell>
        <mxCell id="T4lcWnXd6TqMleLlDLS1-77" value="&lt;font style=&quot;font-size: 30px;&quot;&gt;マスコミ&lt;/font&gt;" style="whiteSpace=wrap;html=1;aspect=fixed;" parent="T4lcWnXd6TqMleLlDLS1-45" vertex="1">
          <mxGeometry x="1380" y="963" width="180" height="180" as="geometry" />
        </mxCell>
        <mxCell id="T4lcWnXd6TqMleLlDLS1-78" value="" style="endArrow=classic;html=1;rounded=0;strokeWidth=3;entryX=0.5;entryY=0;entryDx=0;entryDy=0;exitX=0.5;exitY=1;exitDx=0;exitDy=0;" parent="T4lcWnXd6TqMleLlDLS1-45" source="T4lcWnXd6TqMleLlDLS1-74" target="T4lcWnXd6TqMleLlDLS1-77" edge="1">
          <mxGeometry width="50" height="50" relative="1" as="geometry">
            <mxPoint x="880" y="720" as="sourcePoint" />
            <mxPoint x="1350" y="723" as="targetPoint" />
          </mxGeometry>
        </mxCell>
        <mxCell id="T4lcWnXd6TqMleLlDLS1-79" value="&lt;font style=&quot;font-size: 30px;&quot;&gt;一定期限内に&lt;br&gt;是正されないと通報&lt;br&gt;&lt;/font&gt;" style="text;html=1;strokeColor=none;fillColor=default;align=center;verticalAlign=middle;whiteSpace=wrap;rounded=0;" parent="T4lcWnXd6TqMleLlDLS1-45" vertex="1">
          <mxGeometry x="1277" y="640" width="300" height="98" as="geometry" />
        </mxCell>
        <mxCell id="T4lcWnXd6TqMleLlDLS1-80" value="&lt;font color=&quot;#000000&quot; style=&quot;font-size: 30px;&quot;&gt;本ソフト担当領域&lt;/font&gt;" style="text;html=1;strokeColor=none;fillColor=none;align=center;verticalAlign=middle;whiteSpace=wrap;rounded=0;fontColor=#FFF2CC;fontStyle=1" parent="T4lcWnXd6TqMleLlDLS1-45" vertex="1">
          <mxGeometry x="377" y="680" width="270" height="30" as="geometry" />
        </mxCell>
        <mxCell id="T4lcWnXd6TqMleLlDLS1-81" value="&lt;font color=&quot;#000000&quot; style=&quot;font-size: 30px;&quot;&gt;本ソフト担当領域&lt;/font&gt;" style="text;html=1;strokeColor=none;fillColor=none;align=center;verticalAlign=middle;whiteSpace=wrap;rounded=0;fontColor=#FFF2CC;fontStyle=1" parent="T4lcWnXd6TqMleLlDLS1-45" vertex="1">
          <mxGeometry x="937" y="470" width="270" height="30" as="geometry" />
        </mxCell>
        <mxCell id="T4lcWnXd6TqMleLlDLS1-82" value="&lt;font color=&quot;#000000&quot; style=&quot;font-size: 30px;&quot;&gt;全収支報告書ソフト領域&lt;/font&gt;" style="text;html=1;strokeColor=none;fillColor=none;align=center;verticalAlign=middle;whiteSpace=wrap;rounded=0;fontColor=#FFF2CC;fontStyle=1" parent="T4lcWnXd6TqMleLlDLS1-45" vertex="1">
          <mxGeometry x="500" y="251" width="360" height="30" as="geometry" />
        </mxCell>
        <mxCell id="T4lcWnXd6TqMleLlDLS1-83" value="" style="endArrow=classic;html=1;rounded=0;strokeWidth=3;entryX=0.5;entryY=1;entryDx=0;entryDy=0;exitX=0.419;exitY=-0.001;exitDx=0;exitDy=0;exitPerimeter=0;" parent="T4lcWnXd6TqMleLlDLS1-45" source="T4lcWnXd6TqMleLlDLS1-58" target="T4lcWnXd6TqMleLlDLS1-73" edge="1">
          <mxGeometry width="50" height="50" relative="1" as="geometry">
            <mxPoint x="1440" y="593" as="sourcePoint" />
            <mxPoint x="1480" y="973" as="targetPoint" />
          </mxGeometry>
        </mxCell>
        <mxCell id="T4lcWnXd6TqMleLlDLS1-84" value="&lt;font style=&quot;font-size: 30px;&quot;&gt;決算など一般情報&lt;br&gt;&lt;/font&gt;" style="text;html=1;strokeColor=none;fillColor=default;align=center;verticalAlign=middle;whiteSpace=wrap;rounded=0;" parent="T4lcWnXd6TqMleLlDLS1-45" vertex="1">
          <mxGeometry x="1057" y="780" width="300" height="48" as="geometry" />
        </mxCell>
        <mxCell id="T4lcWnXd6TqMleLlDLS1-85" value="" style="endArrow=classic;html=1;rounded=0;entryX=0;entryY=0.5;entryDx=0;entryDy=0;exitX=0.394;exitY=1.004;exitDx=0;exitDy=0;strokeWidth=3;exitPerimeter=0;" parent="T4lcWnXd6TqMleLlDLS1-45" source="T4lcWnXd6TqMleLlDLS1-51" target="T4lcWnXd6TqMleLlDLS1-74" edge="1">
          <mxGeometry width="50" height="50" relative="1" as="geometry">
            <mxPoint x="1220" y="370" as="sourcePoint" />
            <mxPoint x="1150" y="140" as="targetPoint" />
          </mxGeometry>
        </mxCell>
        <mxCell id="T4lcWnXd6TqMleLlDLS1-86" value="&lt;font style=&quot;font-size: 30px;&quot;&gt;従来参照ルート&lt;/font&gt;" style="text;html=1;strokeColor=none;fillColor=default;align=center;verticalAlign=middle;whiteSpace=wrap;rounded=0;" parent="T4lcWnXd6TqMleLlDLS1-45" vertex="1">
          <mxGeometry x="1097" y="250" width="300" height="80" as="geometry" />
        </mxCell>
        <mxCell id="Xmfd67187f5n766boxqS-2" value="&lt;font style=&quot;font-size: 30px;&quot;&gt;会計&lt;br&gt;データ&lt;/font&gt;" style="shape=cylinder3;whiteSpace=wrap;html=1;boundedLbl=1;backgroundOutline=1;size=15;fillColor=#A9C4EB;strokeColor=#000000;strokeWidth=1;" vertex="1" parent="T4lcWnXd6TqMleLlDLS1-45">
          <mxGeometry x="570" y="330" width="158.33" height="190" as="geometry" />
        </mxCell>
        <mxCell id="Xmfd67187f5n766boxqS-3" value="" style="endArrow=classic;html=1;rounded=0;exitX=0.5;exitY=1;exitDx=0;exitDy=0;strokeWidth=4;entryX=0;entryY=0.5;entryDx=0;entryDy=0;exitPerimeter=0;entryPerimeter=0;" edge="1" parent="T4lcWnXd6TqMleLlDLS1-45" source="Xmfd67187f5n766boxqS-2" target="T4lcWnXd6TqMleLlDLS1-48">
          <mxGeometry width="50" height="50" relative="1" as="geometry">
            <mxPoint x="730" y="186" as="sourcePoint" />
            <mxPoint x="610" y="374" as="targetPoint" />
          </mxGeometry>
        </mxCell>
      </root>
    </mxGraphModel>
  </diagram>
</mxfile>
